<svg width="66" height="66" viewBox="0 0 66 66" fill="none" xmlns="http://www.w3.org/2000/svg">
<path d="M33 62C49.0163 62 62 49.0163 62 33C62 16.9837 49.0163 4 33 4M33 62C16.9837 62 4 49.0163 4 33C4 16.9837 16.9837 4 33 4M33 62C25.9929 62 20.3125 49.0163 20.3125 33C20.3125 16.9837 25.9929 4 33 4M33 62C40.0071 62 45.6875 49.0163 45.6875 33C45.6875 16.9837 40.0071 4 33 4M9.4375 47.0953C14.7504 44.053 23.5774 42.0625 33.5683 42.0625C43.9956 42.0625 53.1552 44.2307 58.375 47.5M9.4375 18.9047C14.7504 21.947 23.5774 23.9375 33.5683 23.9375C43.9956 23.9375 53.1552 21.7693 58.375 18.5" stroke="url(#paint0_linear_20_99)" stroke-width="6.44444"/>
<defs>
<linearGradient id="paint0_linear_20_99" x1="33" y1="4" x2="33" y2="62" gradientUnits="userSpaceOnUse">
<stop stop-color="#94A526"/>
<stop offset="1" stop-color="#0C1B20"/>
</linearGradient>
</defs>
</svg>
